<svg width="24" height="24" viewBox="0 0 24 24" fill="none" xmlns="http://www.w3.org/2000/svg">
<path fill-rule="evenodd" clip-rule="evenodd" d="M3.11751 9.36543C2.8702 10.2005 2.73745 11.0847 2.73745 12C2.73745 12.9169 2.87067 13.8026 3.11881 14.639H7.39727C7.2599 13.7849 7.18798 12.9024 7.18798 12C7.18798 11.0992 7.25965 10.2181 7.39656 9.36543H3.11751ZM3.63592 8.01543H7.67313C8.14933 6.11359 8.95817 4.38927 10.0195 2.94973C7.19459 3.56504 4.85107 5.46929 3.63592 8.01543ZM11.9007 2.78964C10.6295 4.16002 9.63655 5.95639 9.06883 8.01543H14.9398C14.3712 5.95319 13.376 4.15444 12.1021 2.78325L12.0998 2.78082L12.0998 2.78082C12.0512 2.72795 11.9686 2.72515 11.917 2.77266C11.9164 2.77317 11.9159 2.77368 11.9153 2.7742C11.9113 2.77853 11.9063 2.78379 11.9007 2.78964ZM16.3355 8.01543C15.8596 6.11459 15.0514 4.39109 13.9909 2.95201C16.8111 3.56974 19.1503 5.47243 20.364 8.01543H16.3355ZM15.2433 9.36543H8.76535C8.61671 10.212 8.53798 11.0935 8.53798 12C8.53798 12.9081 8.61698 13.7911 8.76612 14.639H15.2426C15.3917 13.7911 15.4707 12.9081 15.4707 12C15.4707 11.0935 15.392 10.212 15.2433 9.36543ZM16.6114 14.639C16.7488 13.7849 16.8207 12.9024 16.8207 12C16.8207 11.0992 16.749 10.2181 16.6121 9.36543H20.8824C21.1297 10.2005 21.2624 11.0847 21.2624 12C21.2624 12.9169 21.1292 13.8026 20.8811 14.639H16.6114ZM14.9386 15.989H9.07004C9.63884 18.0494 10.6335 19.8466 11.9066 21.2168L11.9088 21.2192C11.9575 21.2721 12.04 21.2749 12.0917 21.2274C12.0922 21.2269 12.0928 21.2264 12.0933 21.2258C12.0974 21.2215 12.1023 21.2163 12.108 21.2104C13.3782 19.841 14.3707 18.0462 14.9386 15.989ZM10.0194 21.0503C8.95897 19.6119 8.15056 17.8891 7.67422 15.989H3.63802C4.85376 18.5329 7.19621 20.4353 10.0194 21.0503ZM13.9909 21.048C15.0506 19.61 15.8584 17.8881 16.3344 15.989H20.3619C19.1476 18.5298 16.8095 20.4306 13.9909 21.048ZM1.38745 12C1.38745 6.13889 6.13883 1.38751 11.9999 1.38751C17.8611 1.38751 22.6124 6.13889 22.6124 12C22.6124 17.8611 17.8611 22.6125 11.9999 22.6125C6.13883 22.6125 1.38745 17.8611 1.38745 12ZM12.0792 21.2413C12.0788 21.2417 12.0789 21.2416 12.0792 21.2413L12.0792 21.2413Z" fill="#666770"/>
</svg>
