<svg width="74" height="74" viewBox="0 0 74 74" fill="none" xmlns="http://www.w3.org/2000/svg">
<path fill-rule="evenodd" clip-rule="evenodd" d="M36.9851 21.3279C32.5308 21.3279 28.9198 24.9389 28.9198 29.3933C28.9198 33.8477 32.5308 37.4586 36.9851 37.4586C41.4395 37.4586 45.0505 33.8477 45.0505 29.3933C45.0505 24.9389 41.4395 21.3279 36.9851 21.3279ZM24.7573 29.3933C24.7573 22.64 30.2319 17.1654 36.9851 17.1654C43.7384 17.1654 49.213 22.64 49.213 29.3933C49.213 36.1465 43.7384 41.6211 36.9851 41.6211C30.2319 41.6211 24.7573 36.1465 24.7573 29.3933Z" fill="#1C59B5"/>
<path fill-rule="evenodd" clip-rule="evenodd" d="M36.9984 6.12808C24.148 6.12808 13.7332 16.5429 13.7332 29.3933C13.7332 40.0506 19.6783 49.7113 25.8958 56.8626C28.9792 60.409 32.0678 63.2671 34.3861 65.2381C35.4463 66.1394 36.3422 66.8525 36.9984 67.3583C37.6547 66.8525 38.5506 66.1394 39.6108 65.2381C41.929 63.2671 45.0177 60.409 48.1011 56.8626C54.3186 49.7113 60.2637 40.0506 60.2637 29.3933C60.2637 16.5429 49.8489 6.12808 36.9984 6.12808ZM36.9984 69.9531C35.8047 71.658 35.8041 71.6576 35.8034 71.6571L35.7961 71.6519L35.7782 71.6393L35.7156 71.5947C35.662 71.5565 35.5851 71.5011 35.4865 71.4291C35.2892 71.285 35.0046 71.0741 34.6453 70.7994C33.927 70.2503 32.9085 69.4453 31.69 68.4094C29.2558 66.3399 26.0078 63.3356 22.7546 59.5937C16.2988 52.1684 9.57068 41.5492 9.57068 29.3933C9.57068 14.244 21.8491 1.96558 36.9984 1.96558C52.1478 1.96558 64.4262 14.244 64.4262 29.3933C64.4262 41.5492 57.6981 52.1684 51.2423 59.5937C47.989 63.3356 44.7411 66.3399 42.3069 68.4094C41.0884 69.4453 40.0699 70.2503 39.3515 70.7994C38.9922 71.0741 38.7077 71.285 38.5104 71.4291C38.4117 71.5011 38.3348 71.5565 38.2813 71.5947L38.2186 71.6393L38.2008 71.6519L38.1953 71.6558C38.1946 71.6562 38.1921 71.658 36.9984 69.9531ZM36.9984 69.9531L38.1921 71.658C37.4754 72.1598 36.5201 72.1589 35.8034 71.6571L36.9984 69.9531Z" fill="#1C59B5"/>
</svg>
