<svg width="238" height="31" viewBox="0 0 238 31" fill="none" xmlns="http://www.w3.org/2000/svg">
<path d="M0.65143 25.482L4.6591 21.0763C6.543 23.7354 8.90665 24.9659 11.31 24.9659C13.5133 24.9659 14.8364 23.8141 14.8364 21.9496C14.8364 20.085 13.5942 19.2102 10.2283 17.8224C5.45972 15.9563 2.05404 13.8541 2.05404 8.89152C2.05404 3.92892 6.34131 0 12.2711 0C16.5981 0 19.6432 1.58761 21.8479 4.00913L18.0007 8.69326C16.7585 7.10565 15.035 6.07348 12.7921 6.07348C10.9494 6.07348 9.62629 7.0663 9.62629 8.53435C9.62629 10.0024 11.0686 10.7576 14.5553 12.1863C19.6034 14.1311 22.4484 16.592 22.4484 21.6726C22.4484 27.348 17.961 31 11.7898 31C6.50022 31 2.73395 28.698 0.649902 25.4835L0.65143 25.482Z" fill="#1C59B5"/>
<path d="M57.8405 30.4824L55.8771 24.8069H44.8182L42.7342 30.4824H34.7998L47.1819 0.55542H53.8741L66.0957 30.4824H57.842H57.8405ZM46.861 19.2102H53.9138L52.4317 14.9241C51.7503 12.94 51.1101 10.9952 50.5081 9.05041C49.8664 10.9952 49.1865 12.94 48.4653 14.8848L46.8625 19.2117L46.861 19.2102Z" fill="#1C59B5"/>
<path d="M101.108 0.55542H108.36V30.4824H102.35L87.2037 11.6293L87.3244 30.4824H80.0317V0.55542H86.2029L101.349 19.2889L101.109 0.55542H101.108Z" fill="#1C59B5"/>
<path d="M126.562 30.4824V0.55542H135.218C145.476 0.55542 152.648 5.55586 152.648 15.5189C152.648 25.4819 145.595 30.4824 135.699 30.4824H126.564H126.562ZM133.976 24.0124H135.578C141.268 24.0124 145.035 21.0748 145.035 15.5189C145.035 9.96303 141.829 7.22368 135.578 7.22368H133.976V24.0124Z" fill="#1C59B5"/>
<path d="M166.428 15.4796C166.428 6.62893 173.8 0.0393677 182.696 0.0393677C191.591 0.0393677 198.884 6.58807 198.884 15.5583C198.884 24.5285 191.512 30.9985 182.575 30.9985C173.638 30.9985 166.427 24.7676 166.427 15.4796H166.428ZM191.23 15.5583C191.23 10.6365 187.585 6.82568 182.656 6.82568C177.727 6.82568 174.081 10.6759 174.081 15.5174C174.081 20.6374 177.968 24.2092 182.576 24.2092C187.505 24.2092 191.232 20.5179 191.232 15.5568L191.23 15.5583Z" fill="#1C59B5"/>
<path d="M211.064 30.4824V30.4037L225.209 7.06628H213.548V0.55542H237.35V0.634119L223.325 23.8535H236.548V30.4824H211.064Z" fill="#1C59B5"/>
</svg>
