<svg width="24" height="24" viewBox="0 0 24 24" fill="none" xmlns="http://www.w3.org/2000/svg">
<path fill-rule="evenodd" clip-rule="evenodd" d="M11.9999 2.73745C6.88441 2.73745 2.73745 6.88441 2.73745 11.9999C2.73745 17.1155 6.88441 21.2624 11.9999 21.2624C17.1155 21.2624 21.2624 17.1155 21.2624 11.9999C21.2624 6.88441 17.1155 2.73745 11.9999 2.73745ZM1.38745 11.9999C1.38745 6.13883 6.13883 1.38745 11.9999 1.38745C17.8611 1.38745 22.6124 6.13883 22.6124 11.9999C22.6124 17.8611 17.8611 22.6124 11.9999 22.6124C6.13883 22.6124 1.38745 17.8611 1.38745 11.9999Z" fill="#1C59B5"/>
<path d="M11.079 13.3815C11.025 13.0125 11.0475 12.684 11.1465 12.396C11.2455 12.099 11.3805 11.8335 11.5515 11.5995C11.7315 11.3565 11.916 11.136 12.1049 10.938C12.294 10.731 12.4515 10.533 12.5775 10.344C12.7125 10.146 12.78 9.94795 12.78 9.74995C12.78 9.47095 12.6945 9.25945 12.5235 9.11545C12.3615 8.97145 12.1455 8.89945 11.8755 8.89945C11.6235 8.89945 11.3985 8.95795 11.2005 9.07495C11.0115 9.19195 10.827 9.34045 10.647 9.52045L9.55345 8.52145C9.86845 8.15245 10.2465 7.85545 10.6875 7.63045C11.1285 7.40545 11.61 7.29295 12.132 7.29295C12.618 7.29295 13.05 7.37395 13.428 7.53595C13.815 7.69795 14.121 7.94995 14.346 8.29195C14.571 8.63395 14.6835 9.07045 14.6835 9.60145C14.6835 9.93445 14.616 10.2315 14.481 10.4925C14.346 10.7445 14.1795 10.9785 13.9815 11.1945C13.7835 11.4105 13.59 11.6265 13.401 11.8425C13.212 12.0494 13.059 12.279 12.942 12.531C12.825 12.774 12.7845 13.0575 12.8205 13.3815H11.079ZM11.943 16.662C11.601 16.662 11.3175 16.545 11.0925 16.311C10.8675 16.068 10.755 15.771 10.755 15.42C10.755 15.06 10.8675 14.763 11.0925 14.529C11.3175 14.286 11.601 14.1645 11.943 14.1645C12.285 14.1645 12.5685 14.286 12.7935 14.529C13.0275 14.763 13.1445 15.06 13.1445 15.42C13.1445 15.771 13.0275 16.068 12.7935 16.311C12.5685 16.545 12.285 16.662 11.943 16.662Z" fill="#1C59B5"/>
</svg>
