<?xml version="1.0" encoding="UTF-8"?>
<svg xmlns="http://www.w3.org/2000/svg" xmlns:xlink="http://www.w3.org/1999/xlink" width="300px" height="72px" viewBox="0 0 301 72" version="1.1">
<g id="surface1">
<path style=" stroke:none;fill-rule:evenodd;fill:rgb(99.607843%,99.607843%,99.607843%);fill-opacity:1;" d="M -0.160156 -0.160156 C 100.175781 -0.160156 200.507812 -0.160156 300.839844 -0.160156 C 300.839844 23.839844 300.839844 47.839844 300.839844 71.839844 C 200.507812 71.839844 100.175781 71.839844 -0.160156 71.839844 C -0.160156 47.839844 -0.160156 23.839844 -0.160156 -0.160156 Z M -0.160156 -0.160156 "/>
<path style=" stroke:none;fill-rule:evenodd;fill:rgb(26.666668%,65.098041%,100%);fill-opacity:1;" d="M 170.164062 10.941406 C 170.90625 10.941406 171.644531 10.941406 172.386719 10.941406 C 172.386719 27.753906 172.386719 44.5625 172.386719 61.375 C 171.644531 61.375 170.90625 61.375 170.164062 61.375 C 170.164062 44.5625 170.164062 27.753906 170.164062 10.941406 Z M 170.164062 10.941406 "/>
<path style=" stroke:none;fill-rule:evenodd;fill:rgb(6.27451%,35.294119%,73.333335%);fill-opacity:1;" d="M 210.761719 15.382812 C 222.484375 14.605469 230.363281 19.679688 234.394531 30.609375 C 236.464844 41.316406 232.816406 49.40625 223.449219 54.871094 C 212.574219 59.171875 203.640625 56.6875 196.648438 47.417969 C 193.410156 41.457031 192.773438 35.21875 194.746094 28.703125 C 197.90625 21.605469 203.246094 17.164062 210.761719 15.382812 Z M 210.761719 15.382812 "/>
<path style=" stroke:none;fill-rule:evenodd;fill:rgb(98.039216%,98.039216%,99.215686%);fill-opacity:1;" d="M 228.523438 34.097656 C 224.558594 33.675781 220.542969 33.675781 216.472656 34.097656 C 216.511719 34.289062 216.617188 34.394531 216.789062 34.414062 C 217.597656 36.914062 219.289062 38.394531 221.863281 38.855469 C 221.863281 39.277344 221.863281 39.699219 221.863281 40.125 C 220.054688 40.226562 218.257812 40.121094 216.472656 39.804688 C 213.621094 36.796875 210.714844 33.835938 207.75 30.925781 C 206.597656 27.957031 207.550781 26.054688 210.605469 25.214844 C 212.320312 25.25 212.847656 25.992188 212.191406 27.4375 C 211.648438 29.835938 212.175781 31.949219 213.777344 33.78125 C 213.882812 32.511719 213.988281 31.242188 214.09375 29.972656 C 214.707031 27.808594 215.65625 27.597656 216.949219 29.339844 C 217.152344 29.691406 217.308594 30.0625 217.425781 30.449219 C 216.90625 31.386719 217.0625 32.179688 217.898438 32.828125 C 218.476562 32.320312 218.847656 31.6875 219.011719 30.925781 C 219.941406 30.671875 220.789062 30.246094 221.546875 29.65625 C 221.238281 29.1875 220.867188 28.761719 220.4375 28.386719 C 219.78125 28.734375 219.09375 28.785156 218.375 28.546875 C 216.140625 26.867188 216.457031 25.8125 219.328125 25.375 C 223.332031 25.863281 223.4375 25.230469 219.644531 23.472656 C 218.257812 23.246094 216.882812 23.300781 215.519531 23.628906 C 210.90625 20.867188 207.152344 21.714844 204.261719 26.167969 C 203.394531 28.925781 203.816406 31.464844 205.53125 33.78125 C 207.792969 35.726562 209.960938 37.789062 212.03125 39.964844 C 210.023438 40.070312 208.015625 40.175781 206.003906 40.28125 C 204.5625 40.933594 203.820312 42.042969 203.785156 43.613281 C 204.621094 48.894531 207.6875 51.0625 212.984375 50.113281 C 215.78125 48.851562 217.261719 46.683594 217.425781 43.613281 C 218.796875 43.613281 220.171875 43.613281 221.546875 43.613281 C 221.546875 46.363281 221.546875 49.109375 221.546875 51.859375 C 213.339844 55.132812 206.308594 53.441406 200.457031 46.785156 C 194.519531 37.128906 195.945312 28.726562 204.738281 21.566406 C 213.550781 16.828125 221.320312 18.148438 228.050781 25.53125 C 231.238281 29.90625 232.351562 34.769531 231.378906 40.125 C 228.738281 40.125 226.09375 40.125 223.449219 40.125 C 223.367188 39.65625 223.472656 39.230469 223.769531 38.855469 C 226.3125 38.214844 227.898438 36.628906 228.523438 34.097656 Z M 228.523438 34.097656 "/>
<path style=" stroke:none;fill-rule:evenodd;fill:rgb(5.098039%,34.901962%,73.333335%);fill-opacity:1;" d="M 242.164062 24.265625 C 243.539062 24.265625 244.914062 24.265625 246.289062 24.265625 C 246.289062 31.03125 246.289062 37.796875 246.289062 44.5625 C 244.914062 44.5625 243.539062 44.5625 242.164062 44.5625 C 242.164062 37.796875 242.164062 31.03125 242.164062 24.265625 Z M 242.164062 24.265625 "/>
<path style=" stroke:none;fill-rule:evenodd;fill:rgb(62.352943%,69.01961%,85.490197%);fill-opacity:1;" d="M 272.296875 24.582031 C 270.921875 24.582031 269.546875 24.582031 268.171875 24.582031 C 268.171875 31.136719 268.171875 37.691406 268.171875 44.246094 C 269.546875 44.246094 270.921875 44.246094 272.296875 44.246094 C 270.878906 44.558594 269.398438 44.664062 267.855469 44.5625 C 267.855469 37.796875 267.855469 31.03125 267.855469 24.265625 C 269.398438 24.164062 270.878906 24.269531 272.296875 24.582031 Z M 272.296875 24.582031 "/>
<path style=" stroke:none;fill-rule:evenodd;fill:rgb(4.705882%,34.901962%,73.333335%);fill-opacity:1;" d="M 272.296875 24.582031 C 272.242188 27.964844 272.296875 31.351562 272.453125 34.730469 C 274.164062 32.964844 275.910156 31.273438 277.6875 29.65625 C 279.546875 29.554688 281.34375 29.660156 283.078125 29.972656 C 280.902344 31.992188 278.789062 34.054688 276.734375 36.160156 C 279.046875 38.996094 281.476562 41.746094 284.03125 44.40625 C 282.015625 44.667969 280.003906 44.617188 278.003906 44.246094 C 276.316406 42.136719 274.519531 40.125 272.613281 38.21875 C 272.296875 40.21875 272.191406 42.226562 272.296875 44.246094 C 270.921875 44.246094 269.546875 44.246094 268.171875 44.246094 C 268.171875 37.691406 268.171875 31.136719 268.171875 24.582031 C 269.546875 24.582031 270.921875 24.582031 272.296875 24.582031 Z M 272.296875 24.582031 "/>
<path style=" stroke:none;fill-rule:evenodd;fill:rgb(6.666667%,35.294119%,73.333335%);fill-opacity:1;" d="M 22.042969 27.4375 C 24.734375 27.101562 27.058594 27.84375 29.023438 29.65625 C 28.410156 30.558594 27.722656 31.40625 26.960938 32.195312 C 25.601562 30.851562 24.121094 30.640625 22.519531 31.558594 C 22.257812 32.257812 22.417969 32.839844 22.996094 33.304688 C 25.125 33.972656 26.972656 35.082031 28.546875 36.632812 C 30.253906 41.464844 28.5625 44.214844 23.472656 44.882812 C 20.816406 44.933594 18.757812 43.875 17.285156 41.710938 C 17.921875 40.863281 18.660156 40.125 19.507812 39.488281 C 20.773438 40.96875 22.359375 41.550781 24.265625 41.234375 C 25.375 40.441406 25.480469 39.542969 24.582031 38.539062 C 22.875 37.667969 21.183594 36.769531 19.507812 35.839844 C 17.140625 32.011719 17.988281 29.210938 22.042969 27.4375 Z M 22.042969 27.4375 "/>
<path style=" stroke:none;fill-rule:evenodd;fill:rgb(7.058824%,35.294119%,73.333335%);fill-opacity:1;" d="M 116.5625 27.4375 C 121.910156 26.960938 125.558594 29.179688 127.503906 34.097656 C 128 40.628906 124.988281 44.226562 118.464844 44.882812 C 112.84375 44.28125 109.886719 41.164062 109.585938 35.523438 C 110.265625 31.40625 112.59375 28.710938 116.5625 27.4375 Z M 116.5625 27.4375 "/>
<path style=" stroke:none;fill-rule:evenodd;fill:rgb(3.921569%,34.901962%,73.333335%);fill-opacity:1;" d="M 42.976562 27.753906 C 44.332031 27.660156 45.652344 27.765625 46.941406 28.070312 C 49.109375 33.460938 51.277344 38.855469 53.445312 44.246094 C 51.976562 44.617188 50.496094 44.667969 49.003906 44.40625 C 48.527344 43.453125 48.210938 42.449219 48.050781 41.390625 C 45.933594 41.339844 43.820312 41.390625 41.707031 41.550781 C 41.230469 42.503906 40.914062 43.507812 40.757812 44.5625 C 39.277344 44.5625 37.796875 44.5625 36.316406 44.5625 C 38.445312 38.929688 40.667969 33.324219 42.976562 27.753906 Z M 42.976562 27.753906 "/>
<path style=" stroke:none;fill-rule:evenodd;fill:rgb(1.960784%,34.509805%,73.333335%);fill-opacity:1;" d="M 61.375 27.753906 C 62.753906 27.699219 64.125 27.753906 65.496094 27.910156 C 68.019531 31.320312 70.503906 34.757812 72.949219 38.21875 C 73.109375 34.734375 73.160156 31.242188 73.109375 27.753906 C 74.378906 27.753906 75.644531 27.753906 76.914062 27.753906 C 76.914062 33.355469 76.914062 38.960938 76.914062 44.5625 C 75.640625 44.617188 74.375 44.5625 73.109375 44.40625 C 70.519531 40.96875 67.929688 37.53125 65.339844 34.097656 C 65.179688 37.585938 65.125 41.074219 65.179688 44.5625 C 63.910156 44.5625 62.640625 44.5625 61.375 44.5625 C 61.375 38.960938 61.375 33.355469 61.375 27.753906 Z M 61.375 27.753906 "/>
<path style=" stroke:none;fill-rule:evenodd;fill:rgb(2.352941%,34.509805%,73.333335%);fill-opacity:1;" d="M 87.699219 27.753906 C 90.460938 27.671875 93.210938 27.832031 95.945312 28.230469 C 100.121094 29.230469 102.128906 31.875 101.972656 36.160156 C 102.109375 40.429688 100.101562 43.074219 95.945312 44.089844 C 93.210938 44.46875 90.460938 44.628906 87.699219 44.5625 C 87.699219 38.960938 87.699219 33.355469 87.699219 27.753906 Z M 87.699219 27.753906 "/>
<path style=" stroke:none;fill-rule:evenodd;fill:rgb(3.921569%,34.901962%,73.333335%);fill-opacity:1;" d="M 135.910156 27.753906 C 140.246094 27.699219 144.582031 27.753906 148.914062 27.910156 C 146.296875 32.089844 143.757812 36.316406 141.300781 40.597656 C 143.730469 40.757812 146.164062 40.808594 148.597656 40.757812 C 148.597656 42.027344 148.597656 43.296875 148.597656 44.5625 C 143.839844 44.617188 139.082031 44.5625 134.324219 44.40625 C 136.988281 40.183594 139.527344 35.902344 141.9375 31.558594 C 139.988281 31.246094 137.980469 31.140625 135.910156 31.242188 C 135.910156 30.078125 135.910156 28.917969 135.910156 27.753906 Z M 135.910156 27.753906 "/>
<path style=" stroke:none;fill-rule:evenodd;fill:rgb(6.27451%,35.294119%,73.333335%);fill-opacity:1;" d="M 255.167969 29.023438 C 261.527344 28.40625 264.804688 31.261719 265 37.585938 C 261.300781 37.585938 257.601562 37.585938 253.898438 37.585938 C 253.992188 40.691406 255.578125 42.011719 258.65625 41.550781 C 259.664062 41.011719 260.617188 40.429688 261.511719 39.804688 C 262.585938 39.929688 263.644531 40.140625 264.683594 40.441406 C 263.675781 42.875 261.878906 44.300781 259.292969 44.722656 C 252.117188 45.265625 248.890625 41.933594 249.617188 34.730469 C 250.46875 31.820312 252.320312 29.914062 255.167969 29.023438 Z M 255.167969 29.023438 "/>
<path style=" stroke:none;fill-rule:evenodd;fill:rgb(67.450982%,72.941178%,87.058824%);fill-opacity:1;" d="M 277.6875 29.65625 C 279.542969 29.238281 281.445312 29.238281 283.398438 29.65625 C 283.355469 29.847656 283.25 29.953125 283.078125 29.972656 C 281.34375 29.660156 279.546875 29.554688 277.6875 29.65625 Z M 277.6875 29.65625 "/>
<path style=" stroke:none;fill-rule:evenodd;fill:rgb(45.882353%,56.470591%,80.392158%);fill-opacity:1;" d="M 135.910156 27.753906 C 135.910156 28.917969 135.910156 30.078125 135.910156 31.242188 C 137.980469 31.140625 139.988281 31.246094 141.9375 31.558594 C 139.820312 31.558594 137.707031 31.558594 135.59375 31.558594 C 135.492188 30.226562 135.597656 28.957031 135.910156 27.753906 Z M 135.910156 27.753906 "/>
<path style=" stroke:none;fill-rule:evenodd;fill:rgb(98.823529%,98.823529%,99.215686%);fill-opacity:1;" d="M 91.824219 31.558594 C 96.910156 31.308594 98.757812 33.632812 97.371094 38.539062 C 96.066406 40.535156 94.214844 41.277344 91.824219 40.757812 C 91.824219 37.691406 91.824219 34.625 91.824219 31.558594 Z M 91.824219 31.558594 "/>
<path style=" stroke:none;fill-rule:evenodd;fill:rgb(98.039216%,98.431373%,99.215686%);fill-opacity:1;" d="M 117.195312 31.242188 C 122.589844 31.449219 124.332031 34.09375 122.429688 39.171875 C 119.890625 41.710938 117.355469 41.710938 114.816406 39.171875 C 113.148438 35.738281 113.941406 33.097656 117.195312 31.242188 Z M 117.195312 31.242188 "/>
<path style=" stroke:none;fill-rule:evenodd;fill:rgb(95.686275%,96.078432%,98.039216%);fill-opacity:1;" d="M 255.800781 32.195312 C 258.496094 31.527344 260.1875 32.480469 260.878906 35.046875 C 258.542969 35.152344 256.214844 35.046875 253.898438 34.730469 C 254.234375 33.625 254.871094 32.777344 255.800781 32.195312 Z M 255.800781 32.195312 "/>
<path style=" stroke:none;fill-rule:evenodd;fill:rgb(92.54902%,93.725491%,96.862745%);fill-opacity:1;" d="M 44.5625 32.828125 C 44.878906 32.820312 45.089844 32.976562 45.199219 33.304688 C 45.695312 34.847656 46.222656 36.382812 46.785156 37.902344 C 45.53125 38.21875 44.261719 38.324219 42.976562 38.21875 C 43.570312 36.445312 44.097656 34.648438 44.5625 32.828125 Z M 44.5625 32.828125 "/>
<path style=" stroke:none;fill-rule:evenodd;fill:rgb(46.666667%,56.862748%,80.392158%);fill-opacity:1;" d="M 228.523438 34.097656 C 224.558594 33.992188 220.644531 34.097656 216.789062 34.414062 C 216.617188 34.394531 216.511719 34.289062 216.472656 34.097656 C 220.542969 33.675781 224.558594 33.675781 228.523438 34.097656 Z M 228.523438 34.097656 "/>
<path style=" stroke:none;fill-rule:evenodd;fill:rgb(44.705883%,55.29412%,80.000001%);fill-opacity:1;" d="M 225.671875 36 C 223.660156 35.578125 221.652344 35.578125 219.644531 36 C 219.472656 35.980469 219.367188 35.875 219.328125 35.683594 C 221.546875 35.261719 223.769531 35.261719 225.988281 35.683594 C 225.949219 35.875 225.84375 35.980469 225.671875 36 Z M 225.671875 36 "/>
<path style=" stroke:none;fill-rule:evenodd;fill:rgb(96.078432%,96.470588%,98.431373%);fill-opacity:1;" d="M 219.644531 36 C 221.652344 35.578125 223.660156 35.578125 225.671875 36 C 223.660156 37.691406 221.652344 37.691406 219.644531 36 Z M 219.644531 36 "/>
<path style=" stroke:none;fill-rule:evenodd;fill:rgb(45.882353%,56.470591%,80.392158%);fill-opacity:1;" d="M 207.589844 43.613281 C 209.753906 43.296875 211.972656 43.191406 214.253906 43.296875 C 214.328125 43.703125 214.222656 44.023438 213.933594 44.246094 C 211.953125 43.625 209.839844 43.414062 207.589844 43.613281 Z M 207.589844 43.613281 "/>
<path style=" stroke:none;fill-rule:evenodd;fill:rgb(97.647059%,97.647059%,98.823529%);fill-opacity:1;" d="M 207.589844 43.613281 C 209.839844 43.414062 211.953125 43.625 213.933594 44.246094 C 212.453125 47.449219 210.390625 47.875 207.75 45.515625 C 207.261719 44.859375 207.207031 44.226562 207.589844 43.613281 Z M 207.589844 43.613281 "/>
<path style=" stroke:none;fill-rule:evenodd;fill:rgb(61.56863%,68.235296%,85.09804%);fill-opacity:1;" d="M 217.425781 43.613281 C 218.84375 43.300781 220.320312 43.195312 221.863281 43.296875 C 221.96875 46.207031 221.863281 49.0625 221.546875 51.859375 C 221.546875 49.109375 221.546875 46.363281 221.546875 43.613281 C 220.171875 43.613281 218.796875 43.613281 217.425781 43.613281 Z M 217.425781 43.613281 "/>
<path style=" stroke:none;fill-rule:evenodd;fill:rgb(97.647059%,97.647059%,98.823529%);fill-opacity:1;" d="M 223.449219 43.613281 C 225.574219 43.507812 227.691406 43.613281 229.792969 43.929688 C 228.34375 46.648438 226.335938 48.867188 223.769531 50.589844 C 223.453125 48.273438 223.34375 45.949219 223.449219 43.613281 Z M 223.449219 43.613281 "/>
</g>
</svg>
