<?xml version="1.0" encoding="UTF-8"?>
<svg xmlns="http://www.w3.org/2000/svg" xmlns:xlink="http://www.w3.org/1999/xlink" width="238px" height="57px" viewBox="0 0 238 57" version="1.1">
<g id="surface1">
<path style=" stroke:none;fill-rule:evenodd;fill:rgb(99.607843%,99.607843%,99.607843%);fill-opacity:1;" d="M -0.125 -0.125 C 79.207031 -0.125 158.542969 -0.125 237.875 -0.125 C 237.875 18.875 237.875 37.875 237.875 56.875 C 158.542969 56.875 79.207031 56.875 -0.125 56.875 C -0.125 37.875 -0.125 18.875 -0.125 -0.125 Z M -0.125 -0.125 "/>
<path style=" stroke:none;fill-rule:evenodd;fill:rgb(26.666668%,65.098041%,100%);fill-opacity:1;" d="M 134.550781 8.664062 C 135.132812 8.664062 135.71875 8.664062 136.304688 8.664062 C 136.304688 21.972656 136.304688 35.28125 136.304688 48.589844 C 135.71875 48.589844 135.132812 48.589844 134.550781 48.589844 C 134.550781 35.28125 134.550781 21.972656 134.550781 8.664062 Z M 134.550781 8.664062 "/>
<path style=" stroke:none;fill-rule:evenodd;fill:rgb(6.27451%,35.294119%,73.333335%);fill-opacity:1;" d="M 166.648438 12.179688 C 175.917969 11.5625 182.148438 15.578125 185.335938 24.230469 C 186.972656 32.707031 184.089844 39.113281 176.683594 43.441406 C 168.082031 46.84375 161.019531 44.878906 155.488281 37.539062 C 152.929688 32.820312 152.425781 27.882812 153.984375 22.726562 C 156.484375 17.105469 160.707031 13.589844 166.648438 12.179688 Z M 166.648438 12.179688 "/>
<path style=" stroke:none;fill-rule:evenodd;fill:rgb(98.039216%,98.039216%,99.215686%);fill-opacity:1;" d="M 180.695312 26.992188 C 177.558594 26.660156 174.382812 26.660156 171.164062 26.992188 C 171.195312 27.144531 171.277344 27.230469 171.414062 27.246094 C 172.054688 29.222656 173.390625 30.394531 175.429688 30.761719 C 175.429688 31.09375 175.429688 31.429688 175.429688 31.765625 C 173.996094 31.847656 172.574219 31.761719 171.164062 31.511719 C 168.910156 29.132812 166.613281 26.789062 164.269531 24.480469 C 163.355469 22.132812 164.109375 20.625 166.523438 19.960938 C 167.878906 19.988281 168.296875 20.574219 167.777344 21.71875 C 167.347656 23.621094 167.765625 25.292969 169.03125 26.742188 C 169.117188 25.738281 169.199219 24.734375 169.285156 23.730469 C 169.765625 22.015625 170.519531 21.847656 171.539062 23.226562 C 171.699219 23.503906 171.824219 23.796875 171.917969 24.105469 C 171.507812 24.847656 171.632812 25.476562 172.292969 25.988281 C 172.75 25.585938 173.039062 25.085938 173.171875 24.480469 C 173.90625 24.28125 174.578125 23.945312 175.175781 23.476562 C 174.929688 23.105469 174.636719 22.769531 174.300781 22.472656 C 173.78125 22.746094 173.238281 22.789062 172.667969 22.597656 C 170.902344 21.269531 171.152344 20.433594 173.421875 20.089844 C 176.589844 20.476562 176.671875 19.972656 173.671875 18.582031 C 172.578125 18.402344 171.488281 18.445312 170.410156 18.707031 C 166.761719 16.519531 163.796875 17.191406 161.507812 20.714844 C 160.824219 22.898438 161.15625 24.910156 162.511719 26.742188 C 164.300781 28.28125 166.015625 29.914062 167.652344 31.640625 C 166.066406 31.722656 164.476562 31.804688 162.886719 31.890625 C 161.746094 32.40625 161.160156 33.285156 161.132812 34.527344 C 161.792969 38.710938 164.21875 40.425781 168.40625 39.675781 C 170.617188 38.671875 171.789062 36.957031 171.917969 34.527344 C 173.003906 34.527344 174.089844 34.527344 175.175781 34.527344 C 175.175781 36.703125 175.175781 38.878906 175.175781 41.054688 C 168.6875 43.648438 163.128906 42.308594 158.5 37.039062 C 153.804688 29.394531 154.933594 22.742188 161.886719 17.074219 C 168.855469 13.320312 175 14.367188 180.316406 20.214844 C 182.839844 23.675781 183.71875 27.523438 182.953125 31.765625 C 180.863281 31.765625 178.773438 31.765625 176.683594 31.765625 C 176.617188 31.394531 176.699219 31.058594 176.933594 30.761719 C 178.945312 30.25 180.199219 28.996094 180.695312 26.992188 Z M 180.695312 26.992188 "/>
<path style=" stroke:none;fill-rule:evenodd;fill:rgb(5.098039%,34.901962%,73.333335%);fill-opacity:1;" d="M 191.476562 19.210938 C 192.566406 19.210938 193.652344 19.210938 194.738281 19.210938 C 194.738281 24.566406 194.738281 29.921875 194.738281 35.28125 C 193.652344 35.28125 192.566406 35.28125 191.476562 35.28125 C 191.476562 29.921875 191.476562 24.566406 191.476562 19.210938 Z M 191.476562 19.210938 "/>
<path style=" stroke:none;fill-rule:evenodd;fill:rgb(62.352943%,69.01961%,85.490197%);fill-opacity:1;" d="M 215.304688 19.460938 C 214.21875 19.460938 213.128906 19.460938 212.042969 19.460938 C 212.042969 24.648438 212.042969 29.839844 212.042969 35.027344 C 213.128906 35.027344 214.21875 35.027344 215.304688 35.027344 C 214.183594 35.277344 213.011719 35.359375 211.792969 35.28125 C 211.792969 29.921875 211.792969 24.566406 211.792969 19.210938 C 213.011719 19.128906 214.183594 19.210938 215.304688 19.460938 Z M 215.304688 19.460938 "/>
<path style=" stroke:none;fill-rule:evenodd;fill:rgb(4.705882%,34.901962%,73.333335%);fill-opacity:1;" d="M 215.304688 19.460938 C 215.261719 22.140625 215.304688 24.820312 215.429688 27.496094 C 216.78125 26.097656 218.160156 24.757812 219.566406 23.476562 C 221.035156 23.398438 222.457031 23.480469 223.832031 23.730469 C 222.109375 25.328125 220.4375 26.960938 218.816406 28.625 C 220.640625 30.875 222.5625 33.050781 224.582031 35.152344 C 222.988281 35.363281 221.398438 35.320312 219.816406 35.027344 C 218.480469 33.355469 217.0625 31.765625 215.554688 30.257812 C 215.304688 31.839844 215.222656 33.429688 215.304688 35.027344 C 214.21875 35.027344 213.128906 35.027344 212.042969 35.027344 C 212.042969 29.839844 212.042969 24.648438 212.042969 19.460938 C 213.128906 19.460938 214.21875 19.460938 215.304688 19.460938 Z M 215.304688 19.460938 "/>
<path style=" stroke:none;fill-rule:evenodd;fill:rgb(6.666667%,35.294119%,73.333335%);fill-opacity:1;" d="M 17.429688 21.71875 C 19.558594 21.457031 21.394531 22.042969 22.949219 23.476562 C 22.464844 24.195312 21.921875 24.863281 21.316406 25.488281 C 20.242188 24.425781 19.070312 24.257812 17.804688 24.984375 C 17.597656 25.539062 17.726562 25.996094 18.183594 26.367188 C 19.867188 26.894531 21.328125 27.773438 22.570312 29.003906 C 23.921875 32.824219 22.585938 35.003906 18.558594 35.53125 C 16.460938 35.574219 14.832031 34.734375 13.667969 33.019531 C 14.167969 32.351562 14.753906 31.765625 15.421875 31.261719 C 16.425781 32.433594 17.679688 32.894531 19.183594 32.644531 C 20.0625 32.015625 20.148438 31.304688 19.4375 30.507812 C 18.085938 29.820312 16.75 29.109375 15.421875 28.375 C 13.554688 25.34375 14.222656 23.125 17.429688 21.71875 Z M 17.429688 21.71875 "/>
<path style=" stroke:none;fill-rule:evenodd;fill:rgb(7.058824%,35.294119%,73.333335%);fill-opacity:1;" d="M 92.164062 21.71875 C 96.394531 21.34375 99.277344 23.101562 100.816406 26.992188 C 101.210938 32.167969 98.828125 35.011719 93.671875 35.53125 C 89.226562 35.058594 86.886719 32.589844 86.648438 28.125 C 87.1875 24.863281 89.027344 22.730469 92.164062 21.71875 Z M 92.164062 21.71875 "/>
<path style=" stroke:none;fill-rule:evenodd;fill:rgb(3.921569%,34.901962%,73.333335%);fill-opacity:1;" d="M 33.980469 21.972656 C 35.050781 21.898438 36.097656 21.980469 37.117188 22.222656 C 38.832031 26.492188 40.542969 30.761719 42.257812 35.027344 C 41.097656 35.320312 39.925781 35.363281 38.746094 35.152344 C 38.371094 34.398438 38.121094 33.605469 37.996094 32.769531 C 36.320312 32.726562 34.648438 32.769531 32.980469 32.894531 C 32.601562 33.648438 32.351562 34.445312 32.226562 35.28125 C 31.054688 35.28125 29.886719 35.28125 28.714844 35.28125 C 30.398438 30.816406 32.15625 26.382812 33.980469 21.972656 Z M 33.980469 21.972656 "/>
<path style=" stroke:none;fill-rule:evenodd;fill:rgb(1.960784%,34.509805%,73.333335%);fill-opacity:1;" d="M 48.527344 21.972656 C 49.617188 21.929688 50.703125 21.972656 51.789062 22.097656 C 53.785156 24.796875 55.746094 27.515625 57.683594 30.257812 C 57.808594 27.496094 57.847656 24.734375 57.808594 21.972656 C 58.808594 21.972656 59.8125 21.972656 60.816406 21.972656 C 60.816406 26.40625 60.816406 30.84375 60.816406 35.28125 C 59.808594 35.320312 58.808594 35.28125 57.808594 35.152344 C 55.757812 32.433594 53.710938 29.714844 51.664062 26.992188 C 51.539062 29.753906 51.496094 32.515625 51.539062 35.28125 C 50.535156 35.28125 49.53125 35.28125 48.527344 35.28125 C 48.527344 30.84375 48.527344 26.40625 48.527344 21.972656 Z M 48.527344 21.972656 "/>
<path style=" stroke:none;fill-rule:evenodd;fill:rgb(2.352941%,34.509805%,73.333335%);fill-opacity:1;" d="M 69.34375 21.972656 C 71.527344 21.90625 73.703125 22.035156 75.863281 22.347656 C 79.164062 23.140625 80.753906 25.234375 80.628906 28.625 C 80.738281 32.007812 79.148438 34.101562 75.863281 34.902344 C 73.699219 35.203125 71.527344 35.332031 69.34375 35.28125 C 69.34375 30.84375 69.34375 26.40625 69.34375 21.972656 Z M 69.34375 21.972656 "/>
<path style=" stroke:none;fill-rule:evenodd;fill:rgb(3.921569%,34.901962%,73.333335%);fill-opacity:1;" d="M 107.464844 21.972656 C 110.890625 21.929688 114.320312 21.972656 117.746094 22.097656 C 115.675781 25.402344 113.671875 28.75 111.726562 32.140625 C 113.648438 32.265625 115.570312 32.308594 117.496094 32.265625 C 117.496094 33.269531 117.496094 34.273438 117.496094 35.28125 C 113.730469 35.320312 109.96875 35.28125 106.210938 35.152344 C 108.316406 31.8125 110.324219 28.421875 112.230469 24.984375 C 110.6875 24.734375 109.097656 24.652344 107.464844 24.734375 C 107.464844 23.8125 107.464844 22.890625 107.464844 21.972656 Z M 107.464844 21.972656 "/>
<path style=" stroke:none;fill-rule:evenodd;fill:rgb(6.27451%,35.294119%,73.333335%);fill-opacity:1;" d="M 201.761719 22.976562 C 206.789062 22.488281 209.382812 24.75 209.535156 29.753906 C 206.609375 29.753906 203.683594 29.753906 200.757812 29.753906 C 200.832031 32.214844 202.085938 33.261719 204.519531 32.894531 C 205.316406 32.46875 206.066406 32.007812 206.777344 31.511719 C 207.628906 31.609375 208.464844 31.777344 209.285156 32.015625 C 208.488281 33.941406 207.066406 35.074219 205.019531 35.40625 C 199.347656 35.835938 196.796875 33.199219 197.371094 27.496094 C 198.042969 25.191406 199.507812 23.683594 201.761719 22.976562 Z M 201.761719 22.976562 "/>
<path style=" stroke:none;fill-rule:evenodd;fill:rgb(67.450982%,72.941178%,87.058824%);fill-opacity:1;" d="M 219.566406 23.476562 C 221.03125 23.148438 222.539062 23.148438 224.082031 23.476562 C 224.050781 23.628906 223.964844 23.714844 223.832031 23.730469 C 222.457031 23.480469 221.035156 23.398438 219.566406 23.476562 Z M 219.566406 23.476562 "/>
<path style=" stroke:none;fill-rule:evenodd;fill:rgb(45.882353%,56.470591%,80.392158%);fill-opacity:1;" d="M 107.464844 21.972656 C 107.464844 22.890625 107.464844 23.8125 107.464844 24.734375 C 109.097656 24.652344 110.6875 24.734375 112.230469 24.984375 C 110.558594 24.984375 108.886719 24.984375 107.210938 24.984375 C 107.132812 23.929688 107.21875 22.925781 107.464844 21.972656 Z M 107.464844 21.972656 "/>
<path style=" stroke:none;fill-rule:evenodd;fill:rgb(98.823529%,98.823529%,99.215686%);fill-opacity:1;" d="M 72.605469 24.984375 C 76.625 24.785156 78.089844 26.625 76.992188 30.507812 C 75.957031 32.089844 74.496094 32.675781 72.605469 32.265625 C 72.605469 29.839844 72.605469 27.410156 72.605469 24.984375 Z M 72.605469 24.984375 "/>
<path style=" stroke:none;fill-rule:evenodd;fill:rgb(98.039216%,98.431373%,99.215686%);fill-opacity:1;" d="M 92.667969 24.734375 C 96.929688 24.898438 98.308594 26.992188 96.804688 31.011719 C 94.796875 33.019531 92.792969 33.019531 90.785156 31.011719 C 89.464844 28.292969 90.09375 26.203125 92.667969 24.734375 Z M 92.667969 24.734375 "/>
<path style=" stroke:none;fill-rule:evenodd;fill:rgb(95.686275%,96.078432%,98.039216%);fill-opacity:1;" d="M 202.261719 25.488281 C 204.390625 24.960938 205.730469 25.710938 206.273438 27.746094 C 204.429688 27.828125 202.589844 27.746094 200.757812 27.496094 C 201.023438 26.617188 201.523438 25.949219 202.261719 25.488281 Z M 202.261719 25.488281 "/>
<path style=" stroke:none;fill-rule:evenodd;fill:rgb(92.54902%,93.725491%,96.862745%);fill-opacity:1;" d="M 35.234375 25.988281 C 35.484375 25.980469 35.652344 26.105469 35.738281 26.367188 C 36.128906 27.589844 36.550781 28.800781 36.992188 30.007812 C 36.003906 30.253906 35 30.339844 33.980469 30.257812 C 34.449219 28.851562 34.867188 27.429688 35.234375 25.988281 Z M 35.234375 25.988281 "/>
<path style=" stroke:none;fill-rule:evenodd;fill:rgb(46.666667%,56.862748%,80.392158%);fill-opacity:1;" d="M 180.695312 26.992188 C 177.558594 26.910156 174.464844 26.996094 171.414062 27.246094 C 171.277344 27.230469 171.195312 27.144531 171.164062 26.992188 C 174.382812 26.660156 177.558594 26.660156 180.695312 26.992188 Z M 180.695312 26.992188 "/>
<path style=" stroke:none;fill-rule:evenodd;fill:rgb(44.705883%,55.29412%,80.000001%);fill-opacity:1;" d="M 178.4375 28.5 C 176.847656 28.164062 175.261719 28.164062 173.671875 28.5 C 173.535156 28.484375 173.453125 28.402344 173.421875 28.25 C 175.175781 27.914062 176.933594 27.914062 178.6875 28.25 C 178.65625 28.402344 178.574219 28.484375 178.4375 28.5 Z M 178.4375 28.5 "/>
<path style=" stroke:none;fill-rule:evenodd;fill:rgb(96.078432%,96.470588%,98.431373%);fill-opacity:1;" d="M 173.671875 28.5 C 175.261719 28.164062 176.847656 28.164062 178.4375 28.5 C 176.847656 29.839844 175.261719 29.839844 173.671875 28.5 Z M 173.671875 28.5 "/>
<path style=" stroke:none;fill-rule:evenodd;fill:rgb(45.882353%,56.470591%,80.392158%);fill-opacity:1;" d="M 164.140625 34.527344 C 165.851562 34.277344 167.605469 34.195312 169.410156 34.273438 C 169.46875 34.597656 169.386719 34.851562 169.15625 35.027344 C 167.589844 34.535156 165.917969 34.371094 164.140625 34.527344 Z M 164.140625 34.527344 "/>
<path style=" stroke:none;fill-rule:evenodd;fill:rgb(97.647059%,97.647059%,98.823529%);fill-opacity:1;" d="M 164.140625 34.527344 C 165.917969 34.371094 167.589844 34.535156 169.15625 35.027344 C 167.988281 37.566406 166.355469 37.898438 164.269531 36.03125 C 163.882812 35.515625 163.839844 35.011719 164.140625 34.527344 Z M 164.140625 34.527344 "/>
<path style=" stroke:none;fill-rule:evenodd;fill:rgb(61.56863%,68.235296%,85.09804%);fill-opacity:1;" d="M 171.917969 34.527344 C 173.039062 34.277344 174.207031 34.195312 175.429688 34.273438 C 175.511719 36.582031 175.425781 38.839844 175.175781 41.054688 C 175.175781 38.878906 175.175781 36.703125 175.175781 34.527344 C 174.089844 34.527344 173.003906 34.527344 171.917969 34.527344 Z M 171.917969 34.527344 "/>
<path style=" stroke:none;fill-rule:evenodd;fill:rgb(97.647059%,97.647059%,98.823529%);fill-opacity:1;" d="M 176.683594 34.527344 C 178.363281 34.445312 180.035156 34.527344 181.699219 34.777344 C 180.550781 36.929688 178.964844 38.6875 176.933594 40.050781 C 176.683594 38.21875 176.597656 36.375 176.683594 34.527344 Z M 176.683594 34.527344 "/>
</g>
</svg>
