<?xml version="1.0" encoding="UTF-8"?>
<!DOCTYPE svg PUBLIC "-//W3C//DTD SVG 1.1//EN" "http://www.w3.org/Graphics/SVG/1.1/DTD/svg11.dtd">
<svg xmlns="http://www.w3.org/2000/svg" version="1.1" width="949px" height="227px" style="shape-rendering:geometricPrecision; text-rendering:geometricPrecision; image-rendering:optimizeQuality; fill-rule:evenodd; clip-rule:evenodd" xmlns:xlink="http://www.w3.org/1999/xlink">
<g><path style="opacity:1" fill="#fefefe" d="M -0.5,-0.5 C 315.833,-0.5 632.167,-0.5 948.5,-0.5C 948.5,75.1667 948.5,150.833 948.5,226.5C 632.167,226.5 315.833,226.5 -0.5,226.5C -0.5,150.833 -0.5,75.1667 -0.5,-0.5 Z"/></g>
<g><path style="opacity:1" fill="#44a6ff" d="M 536.5,34.5 C 538.833,34.5 541.167,34.5 543.5,34.5C 543.5,87.5 543.5,140.5 543.5,193.5C 541.167,193.5 538.833,193.5 536.5,193.5C 536.5,140.5 536.5,87.5 536.5,34.5 Z"/></g>
<g><path style="opacity:1" fill="#105abb" d="M 664.5,48.5 C 701.456,46.0429 726.29,62.0429 739,96.5C 745.532,130.261 734.032,155.761 704.5,173C 670.21,186.556 642.043,178.723 620,149.5C 609.784,130.703 607.784,111.036 614,90.5C 623.962,68.1195 640.795,54.1195 664.5,48.5 Z"/></g>
<g><path style="opacity:1" fill="#fafafd" d="M 720.5,107.5 C 707.994,106.175 695.327,106.175 682.5,107.5C 682.624,108.107 682.957,108.44 683.5,108.5C 686.046,116.38 691.379,121.047 699.5,122.5C 699.5,123.833 699.5,125.167 699.5,126.5C 693.794,126.829 688.128,126.495 682.5,125.5C 673.514,116.014 664.348,106.681 655,97.5C 651.365,88.1443 654.365,82.1443 664,79.5C 669.403,79.6095 671.069,81.9429 669,86.5C 667.287,94.0671 668.953,100.734 674,106.5C 674.333,102.5 674.667,98.5 675,94.5C 676.928,87.6757 679.928,87.0091 684,92.5C 684.638,93.6086 685.138,94.7753 685.5,96C 683.864,98.9543 684.364,101.454 687,103.5C 688.815,101.9 689.982,99.8998 690.5,97.5C 693.44,96.6965 696.107,95.3631 698.5,93.5C 697.52,92.0186 696.353,90.6853 695,89.5C 692.936,90.5914 690.769,90.7581 688.5,90C 681.454,84.7106 682.454,81.3772 691.5,80C 704.128,81.544 704.461,79.544 692.5,74C 688.132,73.2911 683.799,73.4577 679.5,74.5C 664.951,65.7902 653.118,68.4569 644,82.5C 641.262,91.1982 642.595,99.1982 648,106.5C 655.136,112.635 661.969,119.135 668.5,126C 662.167,126.333 655.833,126.667 649.5,127C 644.945,129.049 642.611,132.549 642.5,137.5C 645.135,154.159 654.802,160.992 671.5,158C 680.317,154.014 684.984,147.181 685.5,137.5C 689.833,137.5 694.167,137.5 698.5,137.5C 698.5,146.167 698.5,154.833 698.5,163.5C 672.626,173.824 650.46,168.49 632,147.5C 613.287,117.064 617.787,90.5636 645.5,68C 673.29,53.0549 697.79,57.2216 719,80.5C 729.058,94.2851 732.558,109.618 729.5,126.5C 721.167,126.5 712.833,126.5 704.5,126.5C 704.238,125.022 704.571,123.689 705.5,122.5C 713.523,120.477 718.523,115.477 720.5,107.5 Z"/></g>
<g><path style="opacity:1" fill="#0d59bb" d="M 763.5,76.5 C 767.833,76.5 772.167,76.5 776.5,76.5C 776.5,97.8333 776.5,119.167 776.5,140.5C 772.167,140.5 767.833,140.5 763.5,140.5C 763.5,119.167 763.5,97.8333 763.5,76.5 Z"/></g>
<g><path style="opacity:1" fill="#9fb0da" d="M 858.5,77.5 C 854.167,77.5 849.833,77.5 845.5,77.5C 845.5,98.1667 845.5,118.833 845.5,139.5C 849.833,139.5 854.167,139.5 858.5,139.5C 854.03,140.486 849.363,140.819 844.5,140.5C 844.5,119.167 844.5,97.8333 844.5,76.5C 849.363,76.1805 854.03,76.5139 858.5,77.5 Z"/></g>
<g><path style="opacity:1" fill="#0c59bb" d="M 858.5,77.5 C 858.333,88.1719 858.5,98.8385 859,109.5C 864.395,103.936 869.895,98.6029 875.5,93.5C 881.358,93.1778 887.025,93.5111 892.5,94.5C 885.636,100.865 878.97,107.365 872.5,114C 879.782,122.952 887.449,131.619 895.5,140C 889.141,140.831 882.807,140.664 876.5,139.5C 871.175,132.843 865.509,126.51 859.5,120.5C 858.504,126.798 858.17,133.132 858.5,139.5C 854.167,139.5 849.833,139.5 845.5,139.5C 845.5,118.833 845.5,98.1667 845.5,77.5C 849.833,77.5 854.167,77.5 858.5,77.5 Z"/></g>
<g><path style="opacity:1" fill="#115abb" d="M 69.5,86.5 C 77.9827,85.4499 85.3161,87.7832 91.5,93.5C 89.5729,96.35 87.4062,99.0167 85,101.5C 80.7151,97.2684 76.0484,96.6018 71,99.5C 70.1751,101.701 70.6751,103.534 72.5,105C 79.2128,107.103 85.0461,110.603 90,115.5C 95.3846,130.727 90.0513,139.394 74,141.5C 65.6355,141.665 59.1355,138.332 54.5,131.5C 56.5,128.833 58.8333,126.5 61.5,124.5C 65.4944,129.167 70.4944,131.001 76.5,130C 80.0019,127.504 80.3353,124.671 77.5,121.5C 72.1218,118.762 66.7884,115.929 61.5,113C 54.0455,100.928 56.7122,92.0946 69.5,86.5 Z"/></g>
<g><path style="opacity:1" fill="#125abb" d="M 367.5,86.5 C 384.363,85.0026 395.863,92.0026 402,107.5C 403.567,128.1 394.067,139.434 373.5,141.5C 355.782,139.615 346.448,129.782 345.5,112C 347.651,99.0169 354.984,90.5169 367.5,86.5 Z"/></g>
<g><path style="opacity:1" fill="#0a59bb" d="M 135.5,87.5 C 139.767,87.203 143.934,87.5363 148,88.5C 154.833,105.5 161.667,122.5 168.5,139.5C 163.869,140.662 159.202,140.828 154.5,140C 152.998,136.995 151.998,133.829 151.5,130.5C 144.825,130.334 138.158,130.5 131.5,131C 129.998,134.005 128.998,137.171 128.5,140.5C 123.833,140.5 119.167,140.5 114.5,140.5C 121.217,122.732 128.217,105.065 135.5,87.5 Z"/></g>
<g><path style="opacity:1" fill="#0558bb" d="M 193.5,87.5 C 197.846,87.3343 202.179,87.501 206.5,88C 214.456,98.7449 222.289,109.578 230,120.5C 230.5,109.505 230.667,98.505 230.5,87.5C 234.5,87.5 238.5,87.5 242.5,87.5C 242.5,105.167 242.5,122.833 242.5,140.5C 238.486,140.666 234.486,140.499 230.5,140C 222.333,129.167 214.167,118.333 206,107.5C 205.5,118.495 205.333,129.495 205.5,140.5C 201.5,140.5 197.5,140.5 193.5,140.5C 193.5,122.833 193.5,105.167 193.5,87.5 Z"/></g>
<g><path style="opacity:1" fill="#0658bb" d="M 276.5,87.5 C 285.213,87.248 293.88,87.748 302.5,89C 315.665,92.1624 321.998,100.496 321.5,114C 321.931,127.471 315.597,135.804 302.5,139C 293.875,140.201 285.208,140.701 276.5,140.5C 276.5,122.833 276.5,105.167 276.5,87.5 Z"/></g>
<g><path style="opacity:1" fill="#0a59bb" d="M 428.5,87.5 C 442.171,87.3334 455.837,87.5001 469.5,88C 461.248,101.168 453.248,114.501 445.5,128C 453.159,128.5 460.826,128.666 468.5,128.5C 468.5,132.5 468.5,136.5 468.5,140.5C 453.496,140.667 438.496,140.5 423.5,140C 431.901,126.692 439.901,113.192 447.5,99.5C 441.355,98.5098 435.022,98.1765 428.5,98.5C 428.5,94.8333 428.5,91.1667 428.5,87.5 Z"/></g>
<g><path style="opacity:1" fill="#105abb" d="M 804.5,91.5 C 824.552,89.5609 834.886,98.5609 835.5,118.5C 823.833,118.5 812.167,118.5 800.5,118.5C 800.793,128.292 805.793,132.458 815.5,131C 818.675,129.299 821.675,127.465 824.5,125.5C 827.892,125.889 831.225,126.556 834.5,127.5C 831.328,135.175 825.661,139.675 817.5,141C 794.879,142.711 784.712,132.211 787,109.5C 789.683,100.318 795.517,94.318 804.5,91.5 Z"/></g>
<g><path style="opacity:1" fill="#acbade" d="M 875.5,93.5 C 881.346,92.1834 887.346,92.1834 893.5,93.5C 893.376,94.1067 893.043,94.44 892.5,94.5C 887.025,93.5111 881.358,93.1778 875.5,93.5 Z"/></g>
<g><path style="opacity:1" fill="#7590cd" d="M 428.5,87.5 C 428.5,91.1667 428.5,94.8333 428.5,98.5C 435.022,98.1765 441.355,98.5098 447.5,99.5C 440.833,99.5 434.167,99.5 427.5,99.5C 427.183,95.2984 427.517,91.2984 428.5,87.5 Z"/></g>
<g><path style="opacity:1" fill="#fcfcfd" d="M 289.5,99.5 C 305.538,98.7057 311.372,106.039 307,121.5C 302.878,127.803 297.045,130.136 289.5,128.5C 289.5,118.833 289.5,109.167 289.5,99.5 Z"/></g>
<g><path style="opacity:1" fill="#fafbfd" d="M 369.5,98.5 C 386.5,99.1574 392,107.491 386,123.5C 378,131.5 370,131.5 362,123.5C 356.735,112.68 359.235,104.346 369.5,98.5 Z"/></g>
<g><path style="opacity:1" fill="#f4f5fa" d="M 806.5,101.5 C 814.988,99.4002 820.321,102.4 822.5,110.5C 815.137,110.831 807.803,110.497 800.5,109.5C 801.561,106.009 803.561,103.342 806.5,101.5 Z"/></g>
<g><path style="opacity:1" fill="#eceff7" d="M 140.5,103.5 C 141.497,103.47 142.164,103.97 142.5,105C 144.068,109.871 145.735,114.704 147.5,119.5C 143.555,120.491 139.555,120.824 135.5,120.5C 137.365,114.903 139.032,109.237 140.5,103.5 Z"/></g>
<g><path style="opacity:1" fill="#7791cd" d="M 720.5,107.5 C 707.989,107.171 695.655,107.505 683.5,108.5C 682.957,108.44 682.624,108.107 682.5,107.5C 695.327,106.175 707.994,106.175 720.5,107.5 Z"/></g>
<g><path style="opacity:1" fill="#728dcc" d="M 711.5,113.5 C 705.167,112.167 698.833,112.167 692.5,113.5C 691.957,113.44 691.624,113.107 691.5,112.5C 698.5,111.167 705.5,111.167 712.5,112.5C 712.376,113.107 712.043,113.44 711.5,113.5 Z"/></g>
<g><path style="opacity:1" fill="#f5f6fb" d="M 692.5,113.5 C 698.833,112.167 705.167,112.167 711.5,113.5C 705.167,118.833 698.833,118.833 692.5,113.5 Z"/></g>
<g><path style="opacity:1" fill="#7590cd" d="M 654.5,137.5 C 661.313,136.509 668.313,136.175 675.5,136.5C 675.737,137.791 675.404,138.791 674.5,139.5C 668.25,137.541 661.584,136.874 654.5,137.5 Z"/></g>
<g><path style="opacity:1" fill="#f9f9fc" d="M 654.5,137.5 C 661.584,136.874 668.25,137.541 674.5,139.5C 669.83,149.601 663.33,150.934 655,143.5C 653.458,141.435 653.291,139.435 654.5,137.5 Z"/></g>
<g><path style="opacity:1" fill="#9daed9" d="M 685.5,137.5 C 689.97,136.514 694.637,136.181 699.5,136.5C 699.827,145.682 699.493,154.682 698.5,163.5C 698.5,154.833 698.5,146.167 698.5,137.5C 694.167,137.5 689.833,137.5 685.5,137.5 Z"/></g>
<g><path style="opacity:1" fill="#f9f9fc" d="M 704.5,137.5 C 711.2,137.17 717.866,137.503 724.5,138.5C 719.93,147.071 713.597,154.071 705.5,159.5C 704.503,152.197 704.169,144.863 704.5,137.5 Z"/></g>
</svg>
