<?xml version="1.0" encoding="utf-8"?>
<!-- Generator: Adobe Illustrator 21.1.0, SVG Export Plug-In . SVG Version: 6.00 Build 0)  -->
<svg version="1.1" id="Layer_1" xmlns="http://www.w3.org/2000/svg" xmlns:xlink="http://www.w3.org/1999/xlink" x="0px" y="0px"
	 viewBox="0 0 300 35" style="enable-background:new 0 0 300 35;" xml:space="preserve">
<style type="text/css">
	.st0{fill:#0460A9;}
	.st1{fill:#0061AB;}
</style>
<g id="Layer_1_1_">
	<polygon class="st0" points="84.5,17.2 74.6,1 63.1,1 63.1,34 74.6,34 74.6,17.9 84.5,34 95.9,34 95.9,1 84.5,1 	"/>
	<polygon class="st0" points="170,1 170,10.9 181.2,10.9 167,34 198.7,34 198.7,24.1 186.4,24.1 200.3,1 	"/>
	<path class="st0" d="M37.7,1L26.1,34h12.4l1.2-4.2h8.9l1,4.2h12.5l-11-33H37.7z M41.3,22l2.9-10.4L47,22H41.3z"/>
	<path class="st0" d="M112.1,1h-3.8h-8.7v33h9.1l3.8-0.1c10.8,0,18.5-4.3,18.5-16.3C131.1,4.9,122.8,1,112.1,1z M112.9,24.2h-1.4
		V10.9h1.4c4.2,0,6.2,2.8,6.2,6.9C119.1,22.1,117,24.2,112.9,24.2z"/>
	<path class="st0" d="M16.9,12.8c-1.1-0.4-3-0.8-3-2s1.1-1.7,3-1.7c3.3,0,6.2,2.7,6.2,2.7l3.7-8.4C23.9,1.3,19.3,0,15.7,0
		C8.3,0.1,1.9,3.2,1.9,11.5c0,8.2,6.2,9.3,10,10.4c1.7,0.5,3,0.8,3,2.2c0,1.4-1.8,1.6-2.6,1.6c-3.3,0-5.7-1.8-8.2-3.6L0,31.4
		c4.1,2,8.6,3.6,13.3,3.6c7.6,0,13.8-3.2,13.8-11.5C27.1,15.3,20.7,14,16.9,12.8z"/>
	<path class="st0" d="M150.2,0c-10.3,0-17.9,7.2-17.9,17.5C132.3,28,140,35,150.2,35c11.5,0,18.3-7,18.3-17.5S160.6,0,150.2,0z
		 M150.4,24c-3.7,0-6-2.6-6-6.5c0-3.8,2.3-6.5,6-6.5s6.1,2.6,6.1,6.5S154.1,24,150.4,24z"/>
	<g id="Layer_3">
	</g>
</g>
<path class="st1" d="M214.3,10.9h-5.6l-1.5,4.2h-2l5.2-14.2h2.2l5.2,14.2h-2.1L214.3,10.9z M209.2,9.4h4.6l-1.3-4
	c-0.5-1.4-0.9-3-0.9-3l0,0c0,0-0.4,1.7-0.9,3L209.2,9.4z M225.6,0.8h2.1l5.8,8.9c0.7,1.1,1.6,2.8,1.6,2.8l0,0c0,0-0.1-1.9-0.1-3V0.8
	h1.8v14.2h-2l-5.8-8.9c-0.7-1.1-1.6-2.8-1.6-2.8l0,0c0,0,0.1,1.9,0.1,3v8.7h-1.8V0.8z M239.4,9.9c-0.2-2.8,1.9-5.2,4.6-5.4
	c0.1,0,0.3,0,0.4,0c3.1,0,5,2.4,5,5.4s-1.9,5.4-5,5.4c-2.8,0-5-2.2-5-5C239.4,10.2,239.4,10.1,239.4,9.9z M247.6,9.9
	c0-2.2-1.1-4-3.2-4s-3.2,1.8-3.2,4s1.1,4,3.2,4S247.6,12.2,247.6,9.9z M250.4,4.8h1.9l1.8,5.6c0.4,1.4,0.9,3.3,0.9,3.3l0,0
	c0,0,0.4-1.9,0.9-3.3l1.8-5.6h1.8l-3.7,10.3h-2L250.4,4.8z M260.6,12.3c0-2.4,1.8-2.9,4.4-3.2c1.5-0.2,2.5-0.4,2.5-1.5
	s-0.8-1.8-2.2-1.8c-1.6,0-2.4,0.8-2.5,2h-1.7c0.1-1.7,1.4-3.3,4.2-3.3c0.9,0,1.7,0.2,2.5,0.6c0.9,0.6,1.5,1.7,1.4,2.8v4.7
	c0,0.8,0.2,1.3,1.1,1.1h0.1v1.2c-0.3,0.1-0.6,0.2-1,0.2c-0.9,0.1-1.7-0.6-1.8-1.5c0,0,0-0.1,0-0.1l0,0c-0.8,1.1-2.1,1.8-3.4,1.7
	C262.1,15.3,260.6,14.3,260.6,12.3L260.6,12.3z M267.5,11.3V9.6c-0.7,0.4-1.5,0.6-2.3,0.7c-1.7,0.3-2.8,0.6-2.8,2s1,1.7,2.1,1.7
	c1.6,0.1,2.9-1.1,3-2.6C267.5,11.3,267.5,11.3,267.5,11.3L267.5,11.3z M272.2,15.1V4.8h1.8v1.9l0,0c0.6-1.2,1.7-2,3.1-2
	c0.2,0,0.4,0,0.7,0.1v1.7l0,0c-0.2-0.1-0.5-0.1-0.7-0.1c-1.6,0-2.9,1.3-3,2.9c0,0.1,0,0.1,0,0.2v5.6L272.2,15.1z M283.1,15.1
	c-1.4,0-2.4-0.6-2.4-2.1V6.2h-1.6V4.8h1.6V1.6h1.8v3.2h2.1v1.4h-2.1v6.5c0,0.7,0.4,1,1.1,1c0.3,0,0.6-0.1,0.9-0.1l0,0V15
	C284.1,15.1,283.6,15.2,283.1,15.1L283.1,15.1z M288.9,1.9c0,0.6-0.5,1.1-1.1,1.1s-1.1-0.5-1.1-1.1c0-0.6,0.5-1.1,1.1-1.1
	C288.4,0.8,288.9,1.2,288.9,1.9C288.9,1.9,288.9,1.9,288.9,1.9L288.9,1.9z M286.9,4.8h1.8v10.3h-1.8V4.8z M290.9,11.9h1.8
	c0.2,1.5,1.4,2,2.8,2c1.5,0,2.4-0.7,2.4-1.6c0-1.2-0.9-1.4-2.7-1.8c-2-0.4-3.8-0.8-3.8-3.1c0-1.8,1.4-2.9,3.8-2.9
	c2.6,0,3.9,1.2,4.1,3h-1.8c-0.2-1.1-0.9-1.7-2.4-1.7c-1.5,0-2,0.7-2,1.4c0,1.1,1,1.3,2.7,1.6c2.1,0.4,3.8,0.9,3.8,3.3
	c0,2.1-1.7,3.2-4.1,3.2C292.6,15.4,291,14,290.9,11.9L290.9,11.9z M206.4,19.9h5.3c4.2,0,6.4,2.9,6.4,7.2s-2.2,7.1-6.5,7.1h-5.1
	L206.4,19.9z M211.4,32.5c3.2,0,4.5-2.1,4.5-5.4s-1.2-5.5-4.4-5.5h-3.2v10.8H211.4z M222.5,21c0,0.6-0.5,1.1-1.1,1.1
	c-0.6,0-1.1-0.5-1.1-1.1c0-0.6,0.5-1.1,1.1-1.1l0,0C222,19.9,222.5,20.3,222.5,21C222.5,21,222.5,21,222.5,21L222.5,21z M220.5,23.9
	h1.8v10.3h-1.8V23.9z M224,23.9h1.9l1.8,5.6c0.4,1.4,0.9,3.3,0.9,3.3l0,0c0,0,0.4-1.9,0.9-3.3l1.8-5.6h1.8l-3.7,10.3h-1.9L224,23.9z
	 M236.9,21c0,0.6-0.5,1.1-1.1,1.1c-0.6,0-1.1-0.5-1.1-1.1c0-0.6,0.5-1.1,1.1-1.1l0,0C236.4,19.9,236.9,20.3,236.9,21
	C236.9,21,236.9,21,236.9,21L236.9,21z M235,23.9h1.8v10.3H235V23.9z M238.9,31h1.8c0.2,1.5,1.4,2,2.8,2c1.5,0,2.4-0.7,2.4-1.6
	c0-1.2-0.9-1.4-2.7-1.8c-2-0.4-3.8-0.8-3.8-3.1c0-1.8,1.4-2.9,3.8-2.9c2.6,0,3.9,1.2,4.1,3h-1.8c-0.2-1.1-0.9-1.7-2.4-1.7
	s-2,0.7-2,1.4c0,1.1,1,1.3,2.7,1.6c2.1,0.4,3.8,0.9,3.8,3.3c0,2.1-1.7,3.2-4.1,3.2C240.7,34.5,239.1,33.2,238.9,31L238.9,31z
	 M252,21c0,0.6-0.5,1.1-1.1,1.1c-0.6,0-1.1-0.5-1.1-1.1c0-0.6,0.5-1.1,1.1-1.1l0,0C251.5,19.9,251.9,20.4,252,21
	C251.9,21,251.9,21,252,21L252,21z M250,23.9h1.7v10.3h-1.8L250,23.9z M254.1,29.1c-0.2-2.8,1.9-5.2,4.6-5.4c0.1,0,0.3,0,0.4,0
	c3.1,0,5,2.4,5,5.4s-1.9,5.4-5,5.4c-2.8,0-5-2.2-5-5C254.1,29.4,254.1,29.2,254.1,29.1z M262.3,29.1c0-2.2-1.1-4-3.2-4
	c-2.1,0-3.2,1.8-3.2,4s1.1,4,3.2,4C261.2,33.1,262.2,31.3,262.3,29.1L262.3,29.1z M268.2,34.2h-1.8V23.9h1.8v1.4l0,0
	c0.7-1.1,1.9-1.7,3.3-1.7c1.7-0.2,3.3,1,3.5,2.7c0,0.2,0,0.4,0,0.6v7.2h-1.9v-6.9c0-1.1-0.8-2-1.9-2.1c-0.1,0-0.2,0-0.4,0
	c-1.5-0.1-2.7,1.1-2.7,2.5c0,0.1,0,0.2,0,0.2L268.2,34.2z"/>
</svg>
