<?xml version="1.0" encoding="UTF-8"?>
<svg xmlns="http://www.w3.org/2000/svg" xmlns:xlink="http://www.w3.org/1999/xlink" width="238px" height="31px" viewBox="0 0 238 31" version="1.1">
<g id="surface1">
<path style=" stroke:none;fill-rule:evenodd;fill:rgb(99.607843%,99.607843%,99.607843%);fill-opacity:1;" d="M -0.125 -0.0664062 C 79.207031 -0.0664062 158.542969 -0.0664062 237.875 -0.0664062 C 237.875 10.265625 237.875 20.597656 237.875 30.933594 C 158.542969 30.933594 79.207031 30.933594 -0.125 30.933594 C -0.125 20.597656 -0.125 10.265625 -0.125 -0.0664062 Z M -0.125 -0.0664062 "/>
<path style=" stroke:none;fill-rule:evenodd;fill:rgb(26.666668%,65.098041%,100%);fill-opacity:1;" d="M 134.550781 4.710938 C 135.132812 4.710938 135.71875 4.710938 136.304688 4.710938 C 136.304688 11.949219 136.304688 19.1875 136.304688 26.425781 C 135.71875 26.425781 135.132812 26.425781 134.550781 26.425781 C 134.550781 19.1875 134.550781 11.949219 134.550781 4.710938 Z M 134.550781 4.710938 "/>
<path style=" stroke:none;fill-rule:evenodd;fill:rgb(6.27451%,35.294119%,73.333335%);fill-opacity:1;" d="M 166.648438 6.625 C 175.917969 6.289062 182.148438 8.472656 185.335938 13.179688 C 186.972656 17.789062 184.089844 21.269531 176.683594 23.625 C 168.082031 25.476562 161.019531 24.40625 155.488281 20.417969 C 152.929688 17.847656 152.425781 15.164062 153.984375 12.359375 C 156.484375 9.300781 160.707031 7.390625 166.648438 6.625 Z M 166.648438 6.625 "/>
<path style=" stroke:none;fill-rule:evenodd;fill:rgb(98.039216%,98.039216%,99.215686%);fill-opacity:1;" d="M 180.695312 14.679688 C 177.558594 14.5 174.382812 14.5 171.164062 14.679688 C 171.195312 14.761719 171.277344 14.808594 171.414062 14.816406 C 172.054688 15.894531 173.390625 16.53125 175.429688 16.730469 C 175.429688 16.910156 175.429688 17.09375 175.429688 17.273438 C 173.996094 17.320312 172.574219 17.273438 171.164062 17.140625 C 168.910156 15.84375 166.613281 14.570312 164.269531 13.316406 C 163.355469 12.039062 164.109375 11.21875 166.523438 10.855469 C 167.878906 10.871094 168.296875 11.191406 167.777344 11.8125 C 167.347656 12.847656 167.765625 13.757812 169.03125 14.542969 C 169.117188 13.996094 169.199219 13.453125 169.285156 12.90625 C 169.765625 11.972656 170.519531 11.882812 171.539062 12.632812 C 171.699219 12.785156 171.824219 12.941406 171.917969 13.109375 C 171.507812 13.511719 171.632812 13.855469 172.292969 14.132812 C 172.75 13.914062 173.039062 13.644531 173.171875 13.316406 C 173.90625 13.207031 174.578125 13.023438 175.175781 12.769531 C 174.929688 12.566406 174.636719 12.382812 174.300781 12.222656 C 173.78125 12.371094 173.238281 12.394531 172.667969 12.289062 C 170.902344 11.570312 171.152344 11.113281 173.421875 10.925781 C 176.589844 11.136719 176.671875 10.863281 173.671875 10.105469 C 172.578125 10.007812 171.488281 10.03125 170.410156 10.175781 C 166.761719 8.984375 163.796875 9.347656 161.507812 11.265625 C 160.824219 12.453125 161.15625 13.546875 162.511719 14.542969 C 164.300781 15.382812 166.015625 16.269531 167.652344 17.207031 C 166.066406 17.253906 164.476562 17.296875 162.886719 17.34375 C 161.746094 17.625 161.160156 18.101562 161.132812 18.777344 C 161.792969 21.050781 164.21875 21.984375 168.40625 21.578125 C 170.617188 21.03125 171.789062 20.097656 171.917969 18.777344 C 173.003906 18.777344 174.089844 18.777344 175.175781 18.777344 C 175.175781 19.960938 175.175781 21.144531 175.175781 22.328125 C 168.6875 23.738281 163.128906 23.007812 158.5 20.144531 C 153.804688 15.988281 154.933594 12.367188 161.886719 9.285156 C 168.855469 7.246094 175 7.8125 180.316406 10.992188 C 182.839844 12.875 183.71875 14.96875 182.953125 17.273438 C 180.863281 17.273438 178.773438 17.273438 176.683594 17.273438 C 176.617188 17.074219 176.699219 16.890625 176.933594 16.730469 C 178.945312 16.453125 180.199219 15.769531 180.695312 14.679688 Z M 180.695312 14.679688 "/>
<path style=" stroke:none;fill-rule:evenodd;fill:rgb(5.098039%,34.901962%,73.333335%);fill-opacity:1;" d="M 191.476562 10.445312 C 192.566406 10.445312 193.652344 10.445312 194.738281 10.445312 C 194.738281 13.359375 194.738281 16.273438 194.738281 19.1875 C 193.652344 19.1875 192.566406 19.1875 191.476562 19.1875 C 191.476562 16.273438 191.476562 13.359375 191.476562 10.445312 Z M 191.476562 10.445312 "/>
<path style=" stroke:none;fill-rule:evenodd;fill:rgb(62.352943%,69.01961%,85.490197%);fill-opacity:1;" d="M 215.304688 10.582031 C 214.21875 10.582031 213.128906 10.582031 212.042969 10.582031 C 212.042969 13.40625 212.042969 16.226562 212.042969 19.050781 C 213.128906 19.050781 214.21875 19.050781 215.304688 19.050781 C 214.183594 19.183594 213.011719 19.230469 211.792969 19.1875 C 211.792969 16.273438 211.792969 13.359375 211.792969 10.445312 C 213.011719 10.402344 214.183594 10.449219 215.304688 10.582031 Z M 215.304688 10.582031 "/>
<path style=" stroke:none;fill-rule:evenodd;fill:rgb(4.705882%,34.901962%,73.333335%);fill-opacity:1;" d="M 215.304688 10.582031 C 215.261719 12.042969 215.304688 13.496094 215.429688 14.953125 C 216.78125 14.195312 218.160156 13.464844 219.566406 12.769531 C 221.035156 12.726562 222.457031 12.769531 223.832031 12.90625 C 222.109375 13.773438 220.4375 14.664062 218.816406 15.566406 C 220.640625 16.789062 222.5625 17.972656 224.582031 19.117188 C 222.988281 19.234375 221.398438 19.210938 219.816406 19.050781 C 218.480469 18.140625 217.0625 17.277344 215.554688 16.457031 C 215.304688 17.316406 215.222656 18.179688 215.304688 19.050781 C 214.21875 19.050781 213.128906 19.050781 212.042969 19.050781 C 212.042969 16.226562 212.042969 13.40625 212.042969 10.582031 C 213.128906 10.582031 214.21875 10.582031 215.304688 10.582031 Z M 215.304688 10.582031 "/>
<path style=" stroke:none;fill-rule:evenodd;fill:rgb(6.666667%,35.294119%,73.333335%);fill-opacity:1;" d="M 17.429688 11.8125 C 19.558594 11.667969 21.394531 11.988281 22.949219 12.769531 C 22.464844 13.15625 21.921875 13.523438 21.316406 13.859375 C 20.242188 13.285156 19.070312 13.191406 17.804688 13.589844 C 17.597656 13.890625 17.726562 14.140625 18.183594 14.339844 C 19.867188 14.625 21.328125 15.105469 22.570312 15.773438 C 23.921875 17.851562 22.585938 19.035156 18.558594 19.324219 C 16.460938 19.347656 14.832031 18.890625 13.667969 17.957031 C 14.167969 17.59375 14.753906 17.273438 15.421875 17.003906 C 16.425781 17.640625 17.679688 17.890625 19.183594 17.753906 C 20.0625 17.414062 20.148438 17.027344 19.4375 16.59375 C 18.085938 16.21875 16.75 15.832031 15.421875 15.433594 C 13.554688 13.78125 14.222656 12.578125 17.429688 11.8125 Z M 17.429688 11.8125 "/>
<path style=" stroke:none;fill-rule:evenodd;fill:rgb(7.058824%,35.294119%,73.333335%);fill-opacity:1;" d="M 92.164062 11.8125 C 96.394531 11.609375 99.277344 12.5625 100.816406 14.679688 C 101.210938 17.492188 98.828125 19.042969 93.671875 19.324219 C 89.226562 19.066406 86.886719 17.722656 86.648438 15.296875 C 87.1875 13.523438 89.027344 12.363281 92.164062 11.8125 Z M 92.164062 11.8125 "/>
<path style=" stroke:none;fill-rule:evenodd;fill:rgb(3.921569%,34.901962%,73.333335%);fill-opacity:1;" d="M 33.980469 11.949219 C 35.050781 11.910156 36.097656 11.953125 37.117188 12.085938 C 38.832031 14.40625 40.542969 16.730469 42.257812 19.050781 C 41.097656 19.210938 39.925781 19.230469 38.746094 19.117188 C 38.371094 18.707031 38.121094 18.277344 37.996094 17.820312 C 36.320312 17.800781 34.648438 17.820312 32.980469 17.890625 C 32.601562 18.300781 32.351562 18.734375 32.226562 19.1875 C 31.054688 19.1875 29.886719 19.1875 28.714844 19.1875 C 30.398438 16.761719 32.15625 14.347656 33.980469 11.949219 Z M 33.980469 11.949219 "/>
<path style=" stroke:none;fill-rule:evenodd;fill:rgb(1.960784%,34.509805%,73.333335%);fill-opacity:1;" d="M 48.527344 11.949219 C 49.617188 11.925781 50.703125 11.949219 51.789062 12.019531 C 53.785156 13.484375 55.746094 14.964844 57.683594 16.457031 C 57.808594 14.953125 57.847656 13.453125 57.808594 11.949219 C 58.808594 11.949219 59.8125 11.949219 60.816406 11.949219 C 60.816406 14.363281 60.816406 16.773438 60.816406 19.1875 C 59.808594 19.210938 58.808594 19.1875 57.808594 19.117188 C 55.757812 17.640625 53.710938 16.160156 51.664062 14.679688 C 51.539062 16.183594 51.496094 17.683594 51.539062 19.1875 C 50.535156 19.1875 49.53125 19.1875 48.527344 19.1875 C 48.527344 16.773438 48.527344 14.363281 48.527344 11.949219 Z M 48.527344 11.949219 "/>
<path style=" stroke:none;fill-rule:evenodd;fill:rgb(2.352941%,34.509805%,73.333335%);fill-opacity:1;" d="M 69.34375 11.949219 C 71.527344 11.914062 73.703125 11.984375 75.863281 12.152344 C 79.164062 12.585938 80.753906 13.722656 80.628906 15.566406 C 80.738281 17.40625 79.148438 18.546875 75.863281 18.980469 C 73.699219 19.144531 71.527344 19.214844 69.34375 19.1875 C 69.34375 16.773438 69.34375 14.363281 69.34375 11.949219 Z M 69.34375 11.949219 "/>
<path style=" stroke:none;fill-rule:evenodd;fill:rgb(3.921569%,34.901962%,73.333335%);fill-opacity:1;" d="M 107.464844 11.949219 C 110.890625 11.925781 114.320312 11.949219 117.746094 12.019531 C 115.675781 13.816406 113.671875 15.636719 111.726562 17.480469 C 113.648438 17.546875 115.570312 17.570312 117.496094 17.546875 C 117.496094 18.09375 117.496094 18.640625 117.496094 19.1875 C 113.730469 19.210938 109.96875 19.1875 106.210938 19.117188 C 108.316406 17.300781 110.324219 15.457031 112.230469 13.589844 C 110.6875 13.453125 109.097656 13.40625 107.464844 13.453125 C 107.464844 12.949219 107.464844 12.449219 107.464844 11.949219 Z M 107.464844 11.949219 "/>
<path style=" stroke:none;fill-rule:evenodd;fill:rgb(6.27451%,35.294119%,73.333335%);fill-opacity:1;" d="M 201.761719 12.496094 C 206.789062 12.230469 209.382812 13.460938 209.535156 16.183594 C 206.609375 16.183594 203.683594 16.183594 200.757812 16.183594 C 200.832031 17.519531 202.085938 18.089844 204.519531 17.890625 C 205.316406 17.65625 206.066406 17.40625 206.777344 17.140625 C 207.628906 17.191406 208.464844 17.28125 209.285156 17.410156 C 208.488281 18.460938 207.066406 19.074219 205.019531 19.253906 C 199.347656 19.488281 196.796875 18.054688 197.371094 14.953125 C 198.042969 13.699219 199.507812 12.878906 201.761719 12.496094 Z M 201.761719 12.496094 "/>
<path style=" stroke:none;fill-rule:evenodd;fill:rgb(67.450982%,72.941178%,87.058824%);fill-opacity:1;" d="M 219.566406 12.769531 C 221.03125 12.589844 222.539062 12.589844 224.082031 12.769531 C 224.050781 12.851562 223.964844 12.898438 223.832031 12.90625 C 222.457031 12.769531 221.035156 12.726562 219.566406 12.769531 Z M 219.566406 12.769531 "/>
<path style=" stroke:none;fill-rule:evenodd;fill:rgb(45.882353%,56.470591%,80.392158%);fill-opacity:1;" d="M 107.464844 11.949219 C 107.464844 12.449219 107.464844 12.949219 107.464844 13.453125 C 109.097656 13.40625 110.6875 13.453125 112.230469 13.589844 C 110.558594 13.589844 108.886719 13.589844 107.210938 13.589844 C 107.132812 13.015625 107.21875 12.46875 107.464844 11.949219 Z M 107.464844 11.949219 "/>
<path style=" stroke:none;fill-rule:evenodd;fill:rgb(98.823529%,98.823529%,99.215686%);fill-opacity:1;" d="M 72.605469 13.589844 C 76.625 13.480469 78.089844 14.480469 76.992188 16.59375 C 75.957031 17.453125 74.496094 17.773438 72.605469 17.546875 C 72.605469 16.226562 72.605469 14.910156 72.605469 13.589844 Z M 72.605469 13.589844 "/>
<path style=" stroke:none;fill-rule:evenodd;fill:rgb(98.039216%,98.431373%,99.215686%);fill-opacity:1;" d="M 92.667969 13.453125 C 96.929688 13.542969 98.308594 14.679688 96.804688 16.867188 C 94.796875 17.957031 92.792969 17.957031 90.785156 16.867188 C 89.464844 15.386719 90.09375 14.25 92.667969 13.453125 Z M 92.667969 13.453125 "/>
<path style=" stroke:none;fill-rule:evenodd;fill:rgb(95.686275%,96.078432%,98.039216%);fill-opacity:1;" d="M 202.261719 13.859375 C 204.390625 13.574219 205.730469 13.984375 206.273438 15.089844 C 204.429688 15.136719 202.589844 15.089844 200.757812 14.953125 C 201.023438 14.476562 201.523438 14.113281 202.261719 13.859375 Z M 202.261719 13.859375 "/>
<path style=" stroke:none;fill-rule:evenodd;fill:rgb(92.54902%,93.725491%,96.862745%);fill-opacity:1;" d="M 35.234375 14.132812 C 35.484375 14.128906 35.652344 14.199219 35.738281 14.339844 C 36.128906 15.003906 36.550781 15.664062 36.992188 16.320312 C 36.003906 16.453125 35 16.5 33.980469 16.457031 C 34.449219 15.691406 34.867188 14.917969 35.234375 14.132812 Z M 35.234375 14.132812 "/>
<path style=" stroke:none;fill-rule:evenodd;fill:rgb(46.666667%,56.862748%,80.392158%);fill-opacity:1;" d="M 180.695312 14.679688 C 177.558594 14.636719 174.464844 14.679688 171.414062 14.816406 C 171.277344 14.808594 171.195312 14.761719 171.164062 14.679688 C 174.382812 14.5 177.558594 14.5 180.695312 14.679688 Z M 180.695312 14.679688 "/>
<path style=" stroke:none;fill-rule:evenodd;fill:rgb(44.705883%,55.29412%,80.000001%);fill-opacity:1;" d="M 178.4375 15.5 C 176.847656 15.316406 175.261719 15.316406 173.671875 15.5 C 173.535156 15.492188 173.453125 15.445312 173.421875 15.363281 C 175.175781 15.179688 176.933594 15.179688 178.6875 15.363281 C 178.65625 15.445312 178.574219 15.492188 178.4375 15.5 Z M 178.4375 15.5 "/>
<path style=" stroke:none;fill-rule:evenodd;fill:rgb(96.078432%,96.470588%,98.431373%);fill-opacity:1;" d="M 173.671875 15.5 C 175.261719 15.316406 176.847656 15.316406 178.4375 15.5 C 176.847656 16.226562 175.261719 16.226562 173.671875 15.5 Z M 173.671875 15.5 "/>
<path style=" stroke:none;fill-rule:evenodd;fill:rgb(45.882353%,56.470591%,80.392158%);fill-opacity:1;" d="M 164.140625 18.777344 C 165.851562 18.640625 167.605469 18.597656 169.410156 18.640625 C 169.46875 18.816406 169.386719 18.953125 169.15625 19.050781 C 167.589844 18.78125 165.917969 18.691406 164.140625 18.777344 Z M 164.140625 18.777344 "/>
<path style=" stroke:none;fill-rule:evenodd;fill:rgb(97.647059%,97.647059%,98.823529%);fill-opacity:1;" d="M 164.140625 18.777344 C 165.917969 18.691406 167.589844 18.78125 169.15625 19.050781 C 167.988281 20.429688 166.355469 20.613281 164.269531 19.597656 C 163.882812 19.316406 163.839844 19.042969 164.140625 18.777344 Z M 164.140625 18.777344 "/>
<path style=" stroke:none;fill-rule:evenodd;fill:rgb(61.56863%,68.235296%,85.09804%);fill-opacity:1;" d="M 171.917969 18.777344 C 173.039062 18.644531 174.207031 18.597656 175.429688 18.640625 C 175.511719 19.894531 175.425781 21.125 175.175781 22.328125 C 175.175781 21.144531 175.175781 19.960938 175.175781 18.777344 C 174.089844 18.777344 173.003906 18.777344 171.917969 18.777344 Z M 171.917969 18.777344 "/>
<path style=" stroke:none;fill-rule:evenodd;fill:rgb(97.647059%,97.647059%,98.823529%);fill-opacity:1;" d="M 176.683594 18.777344 C 178.363281 18.734375 180.035156 18.777344 181.699219 18.914062 C 180.550781 20.085938 178.964844 21.039062 176.933594 21.78125 C 176.683594 20.785156 176.597656 19.78125 176.683594 18.777344 Z M 176.683594 18.777344 "/>
</g>
</svg>
