<svg width="24" height="24" viewBox="0 0 24 24" fill="none" xmlns="http://www.w3.org/2000/svg">
<path fill-rule="evenodd" clip-rule="evenodd" d="M10.3424 2.73745C6.14215 2.73745 2.73721 6.1424 2.73721 10.3426C2.73721 14.5428 6.14215 17.9478 10.3424 17.9478C14.5426 17.9478 17.9475 14.5428 17.9475 10.3426C17.9475 6.1424 14.5426 2.73745 10.3424 2.73745ZM1.38721 10.3426C1.38721 5.39681 5.39657 1.38745 10.3424 1.38745C15.2882 1.38745 19.2975 5.39681 19.2975 10.3426C19.2975 12.5725 18.4825 14.6121 17.134 16.1796L22.4145 21.4602L21.4599 22.4147L16.1794 17.1342C14.6119 18.4827 12.5723 19.2978 10.3424 19.2978C5.39657 19.2978 1.38721 15.2884 1.38721 10.3426Z" fill="#1C59B5"/>
</svg>
