<svg width="24" height="24" viewBox="0 0 24 24" fill="none" xmlns="http://www.w3.org/2000/svg">
<path fill-rule="evenodd" clip-rule="evenodd" d="M2.82563 7.73702C4.73716 5.75194 7.73117 3.75 12.0002 3.75C16.2693 3.75 19.2633 5.75194 21.1748 7.73702C22.1287 8.72764 22.8169 9.71711 23.2674 10.4601C23.493 10.832 23.6599 11.1437 23.7716 11.365C23.8274 11.4757 23.8695 11.5638 23.8982 11.6258C23.9126 11.6568 23.9236 11.6812 23.9314 11.6986L23.9406 11.7194L23.9433 11.7258L23.9443 11.7279L23.9446 11.7287C23.9446 11.7287 23.9449 11.7294 23.3592 12C23.9449 12.2706 23.9446 12.2713 23.9446 12.2713L23.9443 12.2721L23.9433 12.2742L23.9406 12.2806L23.9314 12.3014C23.9236 12.3188 23.9126 12.3432 23.8982 12.3742C23.8695 12.4362 23.8274 12.5243 23.7716 12.635C23.6599 12.8563 23.493 13.168 23.2674 13.54C22.8169 14.2829 22.1287 15.2724 21.1748 16.263C19.2633 18.2481 16.2693 20.25 12.0002 20.25C7.73117 20.25 4.73715 18.2481 2.82563 16.263C1.8717 15.2724 1.18353 14.2829 0.732992 13.54C0.507408 13.168 0.340485 12.8563 0.228851 12.635C0.173011 12.5243 0.130932 12.4362 0.1022 12.3742C0.0878314 12.3432 0.076794 12.3188 0.0690358 12.3014L0.0598488 12.2806L0.0570861 12.2742L0.0561602 12.2721L0.0558108 12.2713C0.0558108 12.2713 0.055537 12.2706 0.641274 12C0.055537 11.7294 0.0558108 11.7287 0.0558108 11.7287L0.0561602 11.7279L0.0570861 11.7258L0.0598488 11.7194L0.0690358 11.6986C0.0767939 11.6812 0.0878314 11.6568 0.1022 11.6258C0.130932 11.5638 0.173011 11.4757 0.228851 11.365C0.340484 11.1437 0.507408 10.832 0.732992 10.4601C1.18353 9.71711 1.8717 8.72764 2.82563 7.73702ZM0.641274 12L0.0558108 11.7287C-0.0179526 11.901 -0.0179525 12.099 0.0558108 12.2713L0.641274 12ZM1.35602 12C1.35878 12.0055 1.36159 12.0111 1.36444 12.0167C1.46208 12.2102 1.61222 12.4911 1.81781 12.8301C2.22962 13.5092 2.86024 14.4157 3.73209 15.3211C5.4721 17.1281 8.15756 18.9182 12.0002 18.9182C15.8429 18.9182 18.5283 17.1281 20.2683 15.3211C21.1402 14.4157 21.7708 13.5092 22.1826 12.8301C22.3882 12.4911 22.5384 12.2102 22.636 12.0167C22.6388 12.0111 22.6416 12.0055 22.6444 12C22.6416 11.9945 22.6388 11.9889 22.636 11.9833C22.5384 11.7898 22.3882 11.5089 22.1826 11.1699C21.7708 10.4908 21.1402 9.5843 20.2683 8.67891C18.5283 6.87194 15.8429 5.08184 12.0002 5.08184C8.15756 5.08184 5.4721 6.87194 3.73209 8.67891C2.86024 9.5843 2.22962 10.4908 1.81781 11.1699C1.61222 11.5089 1.46208 11.7898 1.36444 11.9833C1.36159 11.9889 1.35878 11.9945 1.35602 12ZM23.3592 12L23.9446 12.2713C24.0184 12.099 24.0184 11.901 23.9446 11.7287L23.3592 12ZM12.0002 8.45056C10.1131 8.45056 8.58328 10.0397 8.58328 12C8.58328 13.9603 10.1131 15.5494 12.0002 15.5494C13.8873 15.5494 15.4171 13.9603 15.4171 12C15.4171 10.0397 13.8873 8.45056 12.0002 8.45056ZM7.30117 12C7.30117 9.30414 9.405 7.11872 12.0002 7.11872C14.5954 7.11872 16.6993 9.30414 16.6993 12C16.6993 14.6958 14.5954 16.8813 12.0002 16.8813C9.405 16.8813 7.30117 14.6958 7.30117 12Z" fill="#1C59B5"/>
</svg>
