<svg width="40" height="40" viewBox="0 0 40 40" fill="none" xmlns="http://www.w3.org/2000/svg">
<path fill-rule="evenodd" clip-rule="evenodd" d="M34.1493 34.1494C26.3485 41.9502 13.6515 41.9502 5.85065 34.1493C-1.95022 26.3485 -1.95022 13.6515 5.85065 5.85065C13.6515 -1.95022 26.3485 -1.95022 34.1494 5.85065C41.9502 13.6515 41.9502 26.3485 34.1493 34.1494ZM17.8892 27.7627C17.8892 26.5953 18.8355 25.649 20.0029 25.649C21.1703 25.649 22.1166 26.5953 22.1166 27.7627C22.1166 28.9301 21.1703 29.8764 20.0029 29.8764C18.8355 29.8764 17.8892 28.9301 17.8892 27.7627ZM21.3149 22.8973L21.3149 11.5426L18.6909 11.5426V22.8973H21.3149Z" fill="#1C59B5"/>
</svg>
